HIERARCHY
ROOT pelvis
{
	OFFSET 0.00 0.00 0.00
	CHANNELS 6 Xposition Yposition Zposition Xrotation Yrotation Zrotation
	JOINT lfemur
	{
		OFFSET 0.00000 4.04436 0.00000
		CHANNELS 3 Xrotation Yrotation Zrotation
		JOINT ltibia
		{
			OFFSET 0.00000 0.00000 -16.29375
			CHANNELS 3 Xrotation Yrotation Zrotation
			JOINT lfoot
			{
				OFFSET 0.00000 0.00000 -15.07135
				CHANNELS 3 Xrotation Yrotation Zrotation
				JOINT ltoes
				{
					OFFSET 4.08523 0.00000 0.00000
					CHANNELS 3 Xrotation Yrotation Zrotation
				}
			}
		}
	}
	JOINT rfemur
	{
		OFFSET 0.00000 -4.04436 0.00000
		CHANNELS 3 Xrotation Yrotation Zrotation
		JOINT rtibia
		{
			OFFSET 0.00000 0.00000 -16.29375
			CHANNELS 3 Xrotation Yrotation Zrotation
			JOINT rfoot
			{
				OFFSET 0.00000 0.00000 -15.07135
				CHANNELS 3 Xrotation Yrotation Zrotation
				JOINT rtoes
				{
					OFFSET 4.08523 0.00000 0.00000
					CHANNELS 3 Xrotation Yrotation Zrotation
				}
			}
		}
	}
	JOINT thorax
	{
		OFFSET -1.96850 0.00000 3.38723
		CHANNELS 6 Xposition Yposition Zposition Xrotation Yrotation Zrotation
		JOINT head
		{
			OFFSET 0.00000 0.00000 16.93583
			CHANNELS 6 Xposition Yposition Zposition Xrotation Yrotation Zrotation
		}
		JOINT lclavicle
		{
			OFFSET 0.00000 0.00000 14.46426
			CHANNELS 3 Xrotation Yrotation Zrotation
			JOINT lhumerus
			{
				OFFSET 0.00000 6.07503 0.73740
				CHANNELS 3 Xrotation Yrotation Zrotation
				JOINT lradius
				{
					OFFSET 0.00000 0.00000 -10.44175
					CHANNELS 3 Xrotation Yrotation Zrotation
					JOINT lhand
					{
						OFFSET 0.00000 0.00000 -9.67100
						CHANNELS 3 Xrotation Yrotation Zrotation
					}
				}
			}
		}
		JOINT rclavicle
		{
			OFFSET 0.00000 0.00000 14.46426
			CHANNELS 3 Xrotation Yrotation Zrotation
			JOINT rhumerus
			{
				OFFSET 0.00000 -6.07503 0.73740
				CHANNELS 3 Xrotation Yrotation Zrotation
				JOINT rradius
				{
					OFFSET 0.00000 0.00000 -10.44175
					CHANNELS 3 Xrotation Yrotation Zrotation
					JOINT rhand
					{
						OFFSET 0.00000 0.00000 -9.67100
						CHANNELS 3 Xrotation Yrotation Zrotation
					}
				}
			}
		}
	}
}
MOTION
Frames: 7
Frame Time:	0.0333333
 39.9249 11.8708 33.1578 0.0025 -0.3452 -90.2904 -1.6516 5.0065 7.8876 0.0000 2.3991 -0.0000 0.0000 15.5507 0.7083 0.0000 -20.7456 -0.0000 -1.7856 7.9048 2.7210 0.0000 -2.9690 0.0000 0.0000 17.4049 -7.4944 0.0000 -24.9388 -0.0000 40.0671 14.8092 36.5037 1.2932 4.4877 6.3604 39.3997 13.0658 53.3550 -7.8356 -15.5154 8.2571 -17.7806 0.0000 -8.4258 21.5831 -0.8640 8.6327 0.0000 -25.6577 -57.9319 0.8523 -2.0912 0.0000 15.7291 -0.0000 9.3396 -19.9538 5.3074 -29.2560 -0.0000 -35.6801 55.0861 -0.2625 -10.3680 -0.0000
 39.9401 11.8954 33.1585 -0.0018 -0.3270 -90.2977 -1.6589 4.9726 7.8770 -0.0000 2.3915 0.0000 0.0000 15.5162 0.7060 0.0000 -20.5342 -0.0000 -1.7938 7.8588 2.8209 0.0000 -2.9543 0.0000 0.0000 17.4115 -7.5695 0.0000 -24.8239 0.0000 40.0814 14.8425 36.5089 1.2867 4.6378 6.3904 39.4209 13.0508 53.3556 -7.8953 -15.6646 8.1385 -17.8174 0.0000 -8.5095 21.6830 -0.8172 9.1888 0.0000 -25.4471 -58.8213 0.2606 -2.2665 -0.0000 15.7324 -0.0000 9.4190 -19.8697 5.2332 -29.2003 0.0000 -35.8339 55.0101 -0.1651 -10.4143 -0.0000
 39.9504 11.9151 33.1587 -0.0174 -0.3260 -90.2794 -1.6725 4.9341 7.8288 -0.0000 2.4293 -0.0000 0.0000 15.5263 0.7282 0.0000 -20.5565 -0.0000 -1.8041 7.7986 2.8938 0.0000 -2.8627 0.0000 -0.0000 17.3794 -7.6645 0.0000 -24.8398 -0.0000 40.0951 14.8569 36.5120 1.2668 4.7459 6.4125 39.4428 13.0377 53.3569 -7.8915 -15.7417 8.1569 -17.8471 0.0000 -8.4776 21.7622 -0.7825 9.5553 0.0000 -25.2573 -59.3527 0.0962 -2.4407 0.0000 15.7400 -0.0000 9.4053 -19.8055 5.1962 -29.0045 0.0000 -35.8672 54.9482 -0.1447 -10.4351 -0.0000
 39.9628 11.9337 33.1602 -0.0365 -0.3310 -90.2004 -1.6909 4.8738 7.7092 0.0000 2.5049 -0.0000 0.0000 15.5407 0.7723 0.0000 -20.5928 0.0000 -1.8137 7.7346 2.8686 0.0000 -2.7347 0.0000 0.0000 17.3380 -7.7385 0.0000 -24.8111 -0.0000 40.1007 14.8803 36.5169 1.2217 4.8846 6.4288 39.4645 13.0198 53.3597 -7.8697 -15.8584 8.2027 -17.8491 0.0000 -8.4593 21.8414 -0.8049 9.7816 0.0000 -25.1012 -59.4787 0.2195 -2.3633 -0.0000 15.7702 -0.0000 9.4275 -19.7606 5.1996 -28.8783 -0.0000 -35.8459 54.9016 -0.1478 -10.4270 0.0000
 39.9769 11.9483 33.1620 -0.0511 -0.3311 -90.0874 -1.7028 4.8213 7.5453 -0.0000 2.5632 -0.0000 0.0000 15.5368 0.8398 0.0000 -20.5631 -0.0000 -1.8192 7.6893 2.8103 0.0000 -2.6311 -0.0000 0.0000 17.3218 -7.7795 0.0000 -24.8420 0.0000 40.1041 14.8996 36.5214 1.1786 4.9960 6.4619 39.4849 13.0045 53.3640 -7.8309 -15.9435 8.2779 -17.8613 0.0000 -8.4392 21.9376 -0.8362 9.9589 0.0000 -25.0131 -59.5833 0.3405 -2.3109 0.0000 15.7832 -0.0000 9.4380 -19.6788 5.2517 -28.8731 -0.0000 -35.7683 54.9936 -0.1016 -10.4997 0.0000
 39.9886 11.9579 33.1628 -0.0594 -0.3326 -89.9526 -1.7125 4.7787 7.4141 -0.0000 2.6074 0.0000 -0.0000 15.5025 0.8428 0.0000 -20.4291 0.0000 -1.8220 7.6645 2.6980 0.0000 -2.5584 0.0000 -0.0000 17.2955 -7.8087 0.0000 -24.8795 -0.0000 40.1050 14.9125 36.5232 1.1410 5.0697 6.4974 39.5116 12.9934 53.3678 -7.7386 -15.9608 8.4031 -17.8835 0.0000 -8.4063 22.0503 -0.8571 10.0415 0.0000 -24.9944 -59.5902 0.4206 -2.3320 -0.0000 15.7887 -0.0000 9.4171 -19.5961 5.3129 -28.9676 -0.0000 -35.6395 55.1352 -0.0787 -10.4736 0.0000
 40.0040 11.9647 33.1637 -0.0624 -0.3414 -89.7882 -1.7352 4.7347 7.3111 -0.0000 2.6472 0.0000 0.0000 15.4965 0.8038 0.0000 -20.4406 0.0000 -1.8354 7.6662 2.5189 0.0000 -2.5256 0.0000 0.0000 17.2736 -7.7850 0.0000 -24.8289 -0.0000 40.1014 14.9201 36.5236 1.0973 5.1071 6.5179 39.5386 12.9834 53.3732 -7.6132 -15.9540 8.6006 -17.9384 0.0000 -8.3544 22.1889 -0.9018 10.1592 0.0000 -24.9998 -59.5819 0.3891 -2.3053 0.0000 15.8073 -0.0000 9.4196 -19.5185 5.3989 -29.1729 -0.0000 -35.4530 55.3285 -0.0314 -10.3840 0.0000
